<svg id="svg5175" height="512" viewBox="0 0 16.933333 16.933334" width="512" xmlns="http://www.w3.org/2000/svg" xmlns:svg="http://www.w3.org/2000/svg"><g id="layer1" transform="translate(0 -280.067)"><path id="path5985-8-6" d="m6.8787173 294.08929c0 .44097-.2346769.93415-.4842078 1.30844-.249532.3743-.496094.62116-.496094.62116 1.3501769.0385 4.3339035 0 5.1366365 0 0 0-.246563-.24686-.496094-.62116-.249529-.37429-.484206-.86747-.484206-1.30844z" fill="#e7ebef" font-variant-ligatures="normal" font-variant-position="normal" font-variant-caps="normal" font-variant-numeric="normal" font-variant-alternates="normal" font-feature-settings="normal" text-indent="0" text-align="start" text-decoration-line="none" text-decoration-style="solid" text-decoration-color="#000000" text-transform="none" text-orientation="mixed" white-space="normal" shape-padding="0" isolation="auto" mix-blend-mode="normal" solid-color="#000000" solid-opacity="1" vector-effect="none"/><path id="path6013-6-66" d="m6.8787173 294.08929c0 .25858-.08499.53272-.2020538.79271h3.5801425c-.11707-.25999-.202054-.53413-.202054-.79271z" fill="#dbe1e7" font-variant-ligatures="normal" font-variant-position="normal" font-variant-caps="normal" font-variant-numeric="normal" font-variant-alternates="normal" font-feature-settings="normal" text-indent="0" text-align="start" text-decoration-line="none" text-decoration-style="solid" text-decoration-color="#000000" text-transform="none" text-orientation="mixed" white-space="normal" shape-padding="0" isolation="auto" mix-blend-mode="normal" solid-color="#000000" solid-opacity="1" vector-effect="none"/><path id="path5975-0-2" d="m1.3220765 283.24163c-.43515996 0-.79296796.35781-.79296796.79297v9.52539c0 .43516.357808.79297.79296796.79297h14.2871075c.43516 0 .79492-.35781.79492-.79297v-9.52539c0-.43516-.35976-.79297-.79492-.79297z" fill="#e7ebef" font-variant-ligatures="normal" font-variant-position="normal" font-variant-caps="normal" font-variant-numeric="normal" font-variant-alternates="normal" font-feature-settings="normal" text-indent="0" text-align="start" text-decoration-line="none" text-decoration-style="solid" text-decoration-color="#000000" text-transform="none" text-orientation="mixed" white-space="normal" shape-padding="0" isolation="auto" mix-blend-mode="normal" solid-color="#000000" solid-opacity="1" vector-effect="none"/><path id="path5979-5-4" d="m1.8513735 284.29828a.26460982.26460982 0 0 0 -.263672.26562v7.4082a.26460982.26460982 0 0 0 .263672.26368h13.2285105a.26460982.26460982 0 0 0 .26563-.26368v-7.4082a.26460982.26460982 0 0 0 -.26563-.26562z" fill="#68b1fc" font-variant-ligatures="normal" font-variant-position="normal" font-variant-caps="normal" font-variant-numeric="normal" font-variant-alternates="normal" font-feature-settings="normal" text-indent="0" text-align="start" text-decoration-line="none" text-decoration-style="solid" text-decoration-color="#000000" text-transform="none" text-orientation="mixed" white-space="normal" shape-padding="0" isolation="auto" mix-blend-mode="normal" solid-color="#000000" solid-opacity="1" vector-effect="none"/><path id="path5083-3-8" d="m7.9373116 292.76507a.26465001.26465001 0 1 0 0 .5293h1.0585939a.26465001.26465001 0 1 0 0-.5293z" fill="#dbe1e7" font-variant-ligatures="normal" font-variant-position="normal" font-variant-caps="normal" font-variant-numeric="normal" font-variant-alternates="normal" font-feature-settings="normal" text-indent="0" text-align="start" text-decoration-line="none" text-decoration-style="solid" text-decoration-color="#000000" text-transform="none" text-orientation="mixed" white-space="normal" shape-padding="0" isolation="auto" mix-blend-mode="normal" solid-color="#000000" solid-opacity="1" vector-effect="none"/><path id="path6024-1-4" d="m14.550604 283.24189c.43516 0 .7953.35755.7953.79271v8.99635c0 .43516-.36014.79272-.7953.79272h-13.2286535c-.43515996 0-.79271596-.35756-.79271596-.79272v.52917c0 .43516.357556.79272.79271596.79272h14.2869835c.43516 0 .7953-.35756.7953-.79272v-9.52552c0-.43516-.36014-.79271-.7953-.79271z" fill="#dbe1e7" font-variant-ligatures="normal" font-variant-position="normal" font-variant-caps="normal" font-variant-numeric="normal" font-variant-alternates="normal" font-feature-settings="normal" text-indent="0" text-align="start" text-decoration-line="none" text-decoration-style="solid" text-decoration-color="#000000" text-transform="none" text-orientation="mixed" white-space="normal" shape-padding="0" isolation="auto" mix-blend-mode="normal" solid-color="#000000" solid-opacity="1" vector-effect="none"/><path id="path6029-66-2" d="m1.8511185 284.29815c-.146122.00058-.264109.1195-.263552.26562v7.40833c.0005292.14532.118237.26297.263552.26355h1.058333c-.1454089-.0005-.263035-.11814-.263551-.26355v-6.87916c-.0005291-.14617.1173801-.2651.263551-.26562h12.1703125c.14694-.00055.26619.11868.26562.26562v-.52917c.000529-.14693-.11869-.26618-.26562-.26562z" fill="#4fa4fb" font-variant-ligatures="normal" font-variant-position="normal" font-variant-caps="normal" font-variant-numeric="normal" font-variant-alternates="normal" font-feature-settings="normal" text-indent="0" text-align="start" text-decoration-line="none" text-decoration-style="solid" text-decoration-color="#000000" text-transform="none" text-orientation="mixed" white-space="normal" shape-padding="0" isolation="auto" mix-blend-mode="normal" solid-color="#000000" solid-opacity="1" vector-effect="none"/><path id="path6034-1-41" d="m8.9964186 294.08929c0 .72888.3354339 1.40249.692463 1.93786.4943624-.004 1.1175334-.008 1.3461704-.008 0 0-.246563-.24685-.496094-.62115-.249529-.37426-.484206-.86744-.484206-1.30841z" fill="#dbe1e7" font-variant-ligatures="normal" font-variant-position="normal" font-variant-caps="normal" font-variant-numeric="normal" font-variant-alternates="normal" font-feature-settings="normal" text-indent="0" text-align="start" text-decoration-line="none" text-decoration-style="solid" text-decoration-color="#000000" text-transform="none" text-orientation="mixed" white-space="normal" shape-padding="0" isolation="auto" mix-blend-mode="normal" solid-color="#000000" solid-opacity="1" vector-effect="none"/><path id="path5081-6-3" d="m5.2908265 296.47015h6.3496105c.352865 0 .352865-.5293 0-.5293h-6.3623046c-.3655608.0169-.3401709.54623.012689.5293z" fill="#e7ebef" font-variant-ligatures="normal" font-variant-position="normal" font-variant-caps="normal" font-variant-numeric="normal" font-variant-alternates="normal" font-feature-settings="normal" text-indent="0" text-align="start" text-decoration-line="none" text-decoration-style="solid" text-decoration-color="#000000" text-transform="none" text-orientation="mixed" white-space="normal" shape-padding="0" isolation="auto" mix-blend-mode="normal" solid-color="#000000" solid-opacity="1" vector-effect="none"/><path id="path22615" d="m6.0854163 281.65361v8.20313h2.3809892v-8.20313c-.0005292-.14541-.118264-.26316-.2636721-.26367h-1.866341c-.1481069.0135-.2511679.12758-.2509761.26367z" fill="#68b1fc" font-variant-ligatures="normal" font-variant-position="normal" font-variant-caps="normal" font-variant-numeric="normal" font-variant-alternates="normal" font-feature-settings="normal" text-indent="0" text-align="start" text-decoration-line="none" text-decoration-style="solid" text-decoration-color="#000000" text-transform="none" text-orientation="mixed" white-space="normal" shape-padding="0" isolation="auto" mix-blend-mode="normal" solid-color="#000000" solid-opacity="1" vector-effect="none"/><path id="path22611" d="m5.8200475 280.59502c.1469321-.00056.2661869.11869.265625.26562v8.9961h-2.3810499v-8.9961c-.0005557-.14617.117503-.2651.263671-.26562z" fill="#fc6067" font-variant-ligatures="normal" font-variant-position="normal" font-variant-caps="normal" font-variant-numeric="normal" font-variant-alternates="normal" font-feature-settings="normal" text-indent="0" text-align="start" text-decoration-line="none" text-decoration-style="solid" text-decoration-color="#000000" text-transform="none" text-orientation="mixed" white-space="normal" shape-padding="0" isolation="auto" mix-blend-mode="normal" solid-color="#000000" solid-opacity="1" vector-effect="none"/><path id="path22623" d="m11.112756 280.59502c-.146932-.00056-.266188.11869-.265625.26562v8.9961h2.38282v-8.9961c.000562-.14693-.118693-.26618-.265625-.26562z" fill="#59e78b" font-variant-ligatures="normal" font-variant-position="normal" font-variant-caps="normal" font-variant-numeric="normal" font-variant-alternates="normal" font-feature-settings="normal" text-indent="0" text-align="start" text-decoration-line="none" text-decoration-style="solid" text-decoration-color="#000000" text-transform="none" text-orientation="mixed" white-space="normal" shape-padding="0" isolation="auto" mix-blend-mode="normal" solid-color="#000000" solid-opacity="1" vector-effect="none"/><path id="path22619" d="m8.7312494 282.18291c-.1469318-.00056-.2661869.11869-.265625.26562v7.40821h2.3809896v-7.40821c.000559-.14617-.117503-.2651-.263672-.26562z" fill="#fcb860" font-variant-ligatures="normal" font-variant-position="normal" font-variant-caps="normal" font-variant-numeric="normal" font-variant-alternates="normal" font-feature-settings="normal" text-indent="0" text-align="start" text-decoration-line="none" text-decoration-style="solid" text-decoration-color="#000000" text-transform="none" text-orientation="mixed" white-space="normal" shape-padding="0" isolation="auto" mix-blend-mode="normal" solid-color="#000000" solid-opacity="1" vector-effect="none"/><path id="path22665" d="m5.0270833 280.59477c.1469337-.00053.2661787.11869.2656178.26562v7.93801c-.0005291.14618-.1194461.26411-.2656178.26355h-1.0588492c-.1454071-.00052-.2630355-.11814-.2635515-.26355v1.05834h2.380734v-8.99635c.0005292-.14693-.1186841-.26618-.2656179-.26562z" fill="#fb4f56" font-variant-ligatures="normal" font-variant-position="normal" font-variant-caps="normal" font-variant-numeric="normal" font-variant-alternates="normal" font-feature-settings="normal" text-indent="0" text-align="start" text-decoration-line="none" text-decoration-style="solid" text-decoration-color="#000000" text-transform="none" text-orientation="mixed" white-space="normal" shape-padding="0" isolation="auto" mix-blend-mode="normal" solid-color="#000000" solid-opacity="1" vector-effect="none"/><path id="path22639" d="m3.7046826 282.18279v1.58801h2.380734v-1.58801z" fill="#e7ebef" font-variant-ligatures="normal" font-variant-position="normal" font-variant-caps="normal" font-variant-numeric="normal" font-variant-alternates="normal" font-feature-settings="normal" text-indent="0" text-align="start" text-decoration-line="none" text-decoration-style="solid" text-decoration-color="#000000" text-transform="none" text-orientation="mixed" white-space="normal" shape-padding="0" isolation="auto" mix-blend-mode="normal" solid-color="#000000" solid-opacity="1" vector-effect="none"/><path id="path22670" d="m5.2916655 282.18279v1.58801h.7937508v-1.58801z" fill="#dbe1e7" font-variant-ligatures="normal" font-variant-position="normal" font-variant-caps="normal" font-variant-numeric="normal" font-variant-alternates="normal" font-feature-settings="normal" text-indent="0" text-align="start" text-decoration-line="none" text-decoration-style="solid" text-decoration-color="#000000" text-transform="none" text-orientation="mixed" white-space="normal" shape-padding="0" isolation="auto" mix-blend-mode="normal" solid-color="#000000" solid-opacity="1" vector-effect="none"/><path id="path22674" d="m12.170833 280.5958c.146934-.00053.266179.11868.265618.26562v7.93801c-.000529.14617-.119446.26411-.265618.26355h-1.058849c-.145407-.00053-.263036-.11814-.263552-.26355v1.05834h2.380734v-8.99635c.000529-.14694-.118684-.26618-.265617-.26562z" fill="#41e37a" font-variant-ligatures="normal" font-variant-position="normal" font-variant-caps="normal" font-variant-numeric="normal" font-variant-alternates="normal" font-feature-settings="normal" text-indent="0" text-align="start" text-decoration-line="none" text-decoration-style="solid" text-decoration-color="#000000" text-transform="none" text-orientation="mixed" white-space="normal" shape-padding="0" isolation="auto" mix-blend-mode="normal" solid-color="#000000" solid-opacity="1" vector-effect="none"/><path id="path22680" d="m9.7882816 282.1833c.1469339-.00053.2661784.11868.2656174.26562v6.34948c-.000529.14617-.1194455.26411-.2656174.26355h-1.0588491c-.1454081-.00053-.263036-.11814-.263552-.26355v1.05834h2.3807335v-7.40782c.000529-.14694-.118684-.26618-.265618-.26562z" fill="#fbb04f" font-variant-ligatures="normal" font-variant-position="normal" font-variant-caps="normal" font-variant-numeric="normal" font-variant-alternates="normal" font-feature-settings="normal" text-indent="0" text-align="start" text-decoration-line="none" text-decoration-style="solid" text-decoration-color="#000000" text-transform="none" text-orientation="mixed" white-space="normal" shape-padding="0" isolation="auto" mix-blend-mode="normal" solid-color="#000000" solid-opacity="1" vector-effect="none"/><path id="path22682" d="m7.4080706 281.38994c.1469339-.00053.2661787.11868.2656178.26562v7.14284c-.0005292.14617-.1194459.26411-.2656178.26355h-1.0588491c-.1454081-.00053-.263036-.11814-.263552-.26355v1.05834h2.3807339v-8.20118c.0005291-.14694-.1186839-.26618-.2656179-.26562z" fill="#4fa4fb" font-variant-ligatures="normal" font-variant-position="normal" font-variant-caps="normal" font-variant-numeric="normal" font-variant-alternates="normal" font-feature-settings="normal" text-indent="0" text-align="start" text-decoration-line="none" text-decoration-style="solid" text-decoration-color="#000000" text-transform="none" text-orientation="mixed" white-space="normal" shape-padding="0" isolation="auto" mix-blend-mode="normal" solid-color="#000000" solid-opacity="1" vector-effect="none"/><g fill="#e7ebef"><path id="path22652" d="m6.0854163 286.9458v1.58802h2.3807341v-1.58802z" font-variant-ligatures="normal" font-variant-position="normal" font-variant-caps="normal" font-variant-numeric="normal" font-variant-alternates="normal" font-feature-settings="normal" text-indent="0" text-align="start" text-decoration-line="none" text-decoration-style="solid" text-decoration-color="#000000" text-transform="none" text-orientation="mixed" white-space="normal" shape-padding="0" isolation="auto" mix-blend-mode="normal" solid-color="#000000" solid-opacity="1" vector-effect="none"/><path id="path22654" d="m8.4671826 283.7708v1.58802h2.3807334v-1.58802z" font-variant-ligatures="normal" font-variant-position="normal" font-variant-caps="normal" font-variant-numeric="normal" font-variant-alternates="normal" font-feature-settings="normal" text-indent="0" text-align="start" text-decoration-line="none" text-decoration-style="solid" text-decoration-color="#000000" text-transform="none" text-orientation="mixed" white-space="normal" shape-padding="0" isolation="auto" mix-blend-mode="normal" solid-color="#000000" solid-opacity="1" vector-effect="none"/><path id="path22656" d="m10.848432 286.9458v1.58802h2.380734v-1.58802z" font-variant-ligatures="normal" font-variant-position="normal" font-variant-caps="normal" font-variant-numeric="normal" font-variant-alternates="normal" font-feature-settings="normal" text-indent="0" text-align="start" text-decoration-line="none" text-decoration-style="solid" text-decoration-color="#000000" text-transform="none" text-orientation="mixed" white-space="normal" shape-padding="0" isolation="auto" mix-blend-mode="normal" solid-color="#000000" solid-opacity="1" vector-effect="none"/></g><path id="path22672" d="m12.435415 286.9458v1.58801h.793751v-1.58801z" fill="#dbe1e7" font-variant-ligatures="normal" font-variant-position="normal" font-variant-caps="normal" font-variant-numeric="normal" font-variant-alternates="normal" font-feature-settings="normal" text-indent="0" text-align="start" text-decoration-line="none" text-decoration-style="solid" text-decoration-color="#000000" text-transform="none" text-orientation="mixed" white-space="normal" shape-padding="0" isolation="auto" mix-blend-mode="normal" solid-color="#000000" solid-opacity="1" vector-effect="none"/><path id="path22684" d="m7.6729156 286.9458v1.58801h.7937508v-1.58801z" fill="#dbe1e7" font-variant-ligatures="normal" font-variant-position="normal" font-variant-caps="normal" font-variant-numeric="normal" font-variant-alternates="normal" font-feature-settings="normal" text-indent="0" text-align="start" text-decoration-line="none" text-decoration-style="solid" text-decoration-color="#000000" text-transform="none" text-orientation="mixed" white-space="normal" shape-padding="0" isolation="auto" mix-blend-mode="normal" solid-color="#000000" solid-opacity="1" vector-effect="none"/><path id="path22686" d="m10.054165 283.7708v1.58801h.793751v-1.58801z" fill="#dbe1e7" font-variant-ligatures="normal" font-variant-position="normal" font-variant-caps="normal" font-variant-numeric="normal" font-variant-alternates="normal" font-feature-settings="normal" text-indent="0" text-align="start" text-decoration-line="none" text-decoration-style="solid" text-decoration-color="#000000" text-transform="none" text-orientation="mixed" white-space="normal" shape-padding="0" isolation="auto" mix-blend-mode="normal" solid-color="#000000" solid-opacity="1" vector-effect="none"/><path id="path22662" d="m2.9109326 289.59112a.26460982.26460982 0 0 0 -.2661337.26562v1.05885a.26460982.26460982 0 0 0 .2661337.26355h11.1109494a.26460982.26460982 0 0 0 .265618-.26355v-1.05885a.26460982.26460982 0 0 0 -.265618-.26562z" fill="#fcb860" font-variant-ligatures="normal" font-variant-position="normal" font-variant-caps="normal" font-variant-numeric="normal" font-variant-alternates="normal" font-feature-settings="normal" text-indent="0" text-align="start" text-decoration-line="none" text-decoration-style="solid" text-decoration-color="#000000" text-transform="none" text-orientation="mixed" white-space="normal" shape-padding="0" isolation="auto" mix-blend-mode="normal" solid-color="#000000" solid-opacity="1" vector-effect="none"/><path id="path22688" d="m2.9109337 291.17914c-.1471311.00085-.2666981-.11849-.2661341-.26562v-.52917c-.0005609.14713.119004.26641.2661341.26562h10.0526153c.146928.00056.266147-.11869.265618-.26562v-.52968c-.000582-.14612-.119499-.26408-.265618-.26355h1.058333c.14612-.00055.265034.11743.265618.26355v1.05885c.000556.14693-.118689.26618-.265618.26562z" fill="#fbb04f" font-variant-ligatures="normal" font-variant-position="normal" font-variant-caps="normal" font-variant-numeric="normal" font-variant-alternates="normal" font-feature-settings="normal" text-indent="0" text-align="start" text-decoration-line="none" text-decoration-style="solid" text-decoration-color="#000000" text-transform="none" text-orientation="mixed" white-space="normal" shape-padding="0" isolation="auto" mix-blend-mode="normal" solid-color="#000000" solid-opacity="1" vector-effect="none"/></g></svg>